<?xml version="1.0" encoding="utf-8"?>
<!-- Svg Vector Icons : http://www.onlinewebfonts.com/icon -->
<!DOCTYPE svg PUBLIC "-//W3C//DTD SVG 1.1//EN" "http://www.w3.org/Graphics/SVG/1.1/DTD/svg11.dtd">
<svg version="1.1" xmlns="http://www.w3.org/2000/svg" xmlns:xlink="http://www.w3.org/1999/xlink" x="0px" y="0px" viewBox="0 0 1000 1000" enable-background="new 0 0 1000 1000" xml:space="preserve" fill="#009688">
<metadata> Svg Vector Icons : http://www.onlinewebfonts.com/icon </metadata>
<g><path d="M500,10C229.4,10,10,229.4,10,500c0,270.6,219.4,490,490,490c270.6,0,490-219.4,490-490C990,229.4,770.6,10,500,10z M500,941C256.4,941,59,743.6,59,500C59,256.4,256.4,59,500,59c243.6,0,441,197.4,441,441C941,743.6,743.6,941,500,941z M230.5,500L230.5,500c0,148.8,120.7,269.5,269.5,269.5c148.8,0,269.5-120.7,269.5-269.5l0,0c0-148.8-120.7-269.5-269.5-269.5C351.2,230.5,230.5,351.2,230.5,500z"/></g>
</svg>