<?xml version="1.0" encoding="utf-8"?>
<!-- Svg Vector Icons : http://www.onlinewebfonts.com/icon -->
<!DOCTYPE svg PUBLIC "-//W3C//DTD SVG 1.1//EN" "http://www.w3.org/Graphics/SVG/1.1/DTD/svg11.dtd">
<svg version="1.1" xmlns="http://www.w3.org/2000/svg" xmlns:xlink="http://www.w3.org/1999/xlink" x="0px" y="0px" viewBox="0 0 1000 1000" enable-background="new 0 0 1000 1000" xml:space="preserve" fill="#fff">
<metadata> Svg Vector Icons : http://www.onlinewebfonts.com/icon </metadata>
<g><path d="M501.9,10.2c49.2,0,89.1,39.9,89.1,89.1v801.6c0,49.2-39.9,89.1-89.1,89.1c-49.2,0-89.1-39.9-89.1-89.1V99.3C412.8,50.1,452.7,10.2,501.9,10.2z"/><path d="M563,36.1c34.8,34.8,34.8,91.2,0,126L206.1,519c-34.8,34.8-91.2,34.8-126,0c-34.8-34.8-34.8-91.2,0-126L437,36.1C471.8,1.3,528.2,1.3,563,36.1z"/><path d="M437,36.1c34.8-34.8,91.2-34.8,126,0L919.9,393c34.8,34.8,34.8,91.2,0,126c-34.8,34.8-91.2,34.8-126,0L437,162C402.2,127.3,402.2,70.9,437,36.1z"/></g>
</svg>